{
  "accessors": [
    {
      "bufferView": 2,
      "componentType": 5126,
      "count": 6813,
      "max": [
        229.16900634765625,
        250.67390441894531,
        259.46029663085938
      ],
      "min": [
        -229.07820129394531,
        -250.63189697265625,
        -266.0281982421875
      ],
      "type": "VEC3"
    },
    {
      "bufferView": 2,
      "byteOffset": 81756,
      "componentType": 5126,
      "count": 6813,
      "max": [
        1,
        1,
        1
      ],
      "min": [
        -1,
        -1,
        -1
      ],
      "type": "VEC3"
    },
    {
      "bufferView": 3,
      "componentType": 5126,
      "count": 6813,
      "max": [
        1,
        1,
        1,
        1
      ],
      "min": [
        -1,
        -1,
        -1,
        -1
      ],
      "type": "VEC4"
    },
    {
      "bufferView": 3,
      "byteOffset": 109008,
      "componentType": 5126,
      "count": 6813,
      "max": [
        1,
        1,
        1,
        1
      ],
      "min": [
        1,
        1,
        1,
        1
      ],
      "type": "VEC4"
    },
    {
      "bufferView": 1,
      "componentType": 5126,
      "count": 6813,
      "max": [
        6,
        1
      ],
      "min": [
        -0.25,
        0
      ],
      "type": "VEC2"
    },
    {
      "bufferView": 0,
      "componentType": 5125,
      "count": 17895,
      "max": [
        6812
      ],
      "min": [
        0
      ],
      "type": "SCALAR"
    },
    {
      "bufferView": 2,
      "byteOffset": 163512,
      "componentType": 5126,
      "count": 1442,
      "max": [
        82.669296264648438,
        82.960502624511719,
        172.69931030273438
      ],
      "min": [
        -85.352500915527344,
        -89.722900390625,
        -256.38690185546875
      ],
      "type": "VEC3"
    },
    {
      "bufferView": 2,
      "byteOffset": 180816,
      "componentType": 5126,
      "count": 1442,
      "max": [
        1,
        1,
        1
      ],
      "min": [
        -1,
        -1,
        -1
      ],
      "type": "VEC3"
    },
    {
      "bufferView": 3,
      "byteOffset": 218016,
      "componentType": 5126,
      "count": 1442,
      "max": [
        1,
        0.99998313188552856,
        1,
        1
      ],
      "min": [
        -1,
        -0.97496211528778076,
        -1,
        -1
      ],
      "type": "VEC4"
    },
    {
      "bufferView": 3,
      "byteOffset": 241088,
      "componentType": 5126,
      "count": 1442,
      "max": [
        1,
        1,
        1,
        1
      ],
      "min": [
        1,
        1,
        1,
        1
      ],
      "type": "VEC4"
    },
    {
      "bufferView": 1,
      "byteOffset": 54504,
      "componentType": 5126,
      "count": 1442,
      "max": [
        1.0006999969482422,
        0.80159997940063477
      ],
      "min": [
        0.0035000001080334187,
        0.48240000009536743
      ],
      "type": "VEC2"
    },
    {
      "bufferView": 0,
      "byteOffset": 71580,
      "componentType": 5125,
      "count": 3741,
      "max": [
        1441
      ],
      "min": [
        0
      ],
      "type": "SCALAR"
    },
    {
      "bufferView": 2,
      "byteOffset": 198120,
      "componentType": 5126,
      "count": 93,
      "max": [
        57.899299621582031,
        57.736499786376953,
        258.26419067382812
      ],
      "min": [
        -57.850799560546875,
        -57.379600524902344,
        -45.364398956298828
      ],
      "type": "VEC3"
    },
    {
      "bufferView": 2,
      "byteOffset": 199236,
      "componentType": 5126,
      "count": 93,
      "max": [
        1,
        1,
        2.7355554266250692e-07
      ],
      "min": [
        -1,
        -0.99862927198410034,
        -1.8405397383958189e-07
      ],
      "type": "VEC3"
    },
    {
      "bufferView": 3,
      "byteOffset": 264160,
      "componentType": 5126,
      "count": 93,
      "max": [
        0.99862933158874512,
        1,
        6.6941518994667604e-09,
        1
      ],
      "min": [
        -1,
        -1,
        -9.5762882068584076e-09,
        1
      ],
      "type": "VEC4"
    },
    {
      "bufferView": 3,
      "byteOffset": 265648,
      "componentType": 5126,
      "count": 93,
      "max": [
        1,
        1,
        1,
        1
      ],
      "min": [
        1,
        1,
        1,
        1
      ],
      "type": "VEC4"
    },
    {
      "bufferView": 1,
      "byteOffset": 66040,
      "componentType": 5126,
      "count": 93,
      "max": [
        4.9162001609802246,
        1.9989999532699585
      ],
      "min": [
        -0.083800002932548523,
        0.0010000000474974513
      ],
      "type": "VEC2"
    },
    {
      "bufferView": 0,
      "byteOffset": 86544,
      "componentType": 5125,
      "count": 300,
      "max": [
        92
      ],
      "min": [
        0
      ],
      "type": "SCALAR"
    },
    {
      "bufferView": 2,
      "byteOffset": 200352,
      "componentType": 5126,
      "count": 148,
      "max": [
        222.2333984375,
        248.19729614257812,
        -23.971805572509766
      ],
      "min": [
        -222.1427001953125,
        -248.53399658203125,
        -247.18609619140625
      ],
      "type": "VEC3"
    },
    {
      "bufferView": 2,
      "byteOffset": 202128,
      "componentType": 5126,
      "count": 148,
      "max": [
        1,
        1,
        1
      ],
      "min": [
        -1,
        -1,
        -1
      ],
      "type": "VEC3"
    },
    {
      "bufferView": 3,
      "byteOffset": 267136,
      "componentType": 5126,
      "count": 148,
      "max": [
        1,
        1,
        1,
        1
      ],
      "min": [
        -1,
        -1,
        -1,
        -1
      ],
      "type": "VEC4"
    },
    {
      "bufferView": 3,
      "byteOffset": 269504,
      "componentType": 5126,
      "count": 148,
      "max": [
        1,
        1,
        1,
        1
      ],
      "min": [
        1,
        1,
        1,
        1
      ],
      "type": "VEC4"
    },
    {
      "bufferView": 1,
      "byteOffset": 66784,
      "componentType": 5126,
      "count": 148,
      "max": [
        1.6993999481201172,
        1
      ],
      "min": [
        -0.125,
        0
      ],
      "type": "VEC2"
    },
    {
      "bufferView": 0,
      "byteOffset": 87744,
      "componentType": 5125,
      "count": 276,
      "max": [
        147
      ],
      "min": [
        0
      ],
      "type": "SCALAR"
    },
    {
      "bufferView": 2,
      "byteOffset": 203904,
      "componentType": 5126,
      "count": 312,
      "max": [
        44.449199676513672,
        0.31610000133514404,
        -100.39279174804688
      ],
      "min": [
        -44.522899627685547,
        -86.58740234375,
        -135.78959655761719
      ],
      "type": "VEC3"
    },
    {
      "bufferView": 2,
      "byteOffset": 207648,
      "componentType": 5126,
      "count": 312,
      "max": [
        0.99998754262924194,
        0.99998384714126587,
        0.99999243021011353
      ],
      "min": [
        -0.99998754262924194,
        -0.99999433755874634,
        -0.99999237060546875
      ],
      "type": "VEC3"
    },
    {
      "bufferView": 3,
      "byteOffset": 271872,
      "componentType": 5126,
      "count": 312,
      "max": [
        0.99998873472213745,
        0.90436029434204102,
        0.99999207258224487,
        1
      ],
      "min": [
        -0.99985110759735107,
        -0.99998378753662109,
        -0.99999022483825684,
        -1
      ],
      "type": "VEC4"
    },
    {
      "bufferView": 3,
      "byteOffset": 276864,
      "componentType": 5126,
      "count": 312,
      "max": [
        1,
        1,
        1,
        1
      ],
      "min": [
        1,
        1,
        1,
        1
      ],
      "type": "VEC4"
    },
    {
      "bufferView": 1,
      "byteOffset": 67968,
      "componentType": 5126,
      "count": 312,
      "max": [
        0.99949997663497925,
        1
      ],
      "min": [
        -0.25,
        0
      ],
      "type": "VEC2"
    },
    {
      "bufferView": 0,
      "byteOffset": 88848,
      "componentType": 5125,
      "count": 768,
      "max": [
        311
      ],
      "min": [
        0
      ],
      "type": "SCALAR"
    }
  ],
  "asset": {
    "extras": {
      "author": "NASA (https://sketchfab.com/NASA)",
      "license": "CC-BY-NC-4.0 (http://creativecommons.org/licenses/by-nc/4.0/)",
      "source": "https://sketchfab.com/models/640764e1a20a4c7ea9718a83a05bcb7f",
      "title": "Hubble Space Telescope"
    },
    "generator": "Sketchfab-3.18.7",
    "version": "2.0"
  },
  "bufferViews": [
    {
      "buffer": 0,
      "byteLength": 91920,
      "byteOffset": 0,
      "name": "floatBufferViews",
      "target": 34963
    },
    {
      "buffer": 0,
      "byteLength": 70464,
      "byteOffset": 91920,
      "byteStride": 8,
      "name": "floatBufferViews",
      "target": 34962
    },
    {
      "buffer": 0,
      "byteLength": 211392,
      "byteOffset": 162384,
      "byteStride": 12,
      "name": "floatBufferViews",
      "target": 34962
    },
    {
      "buffer": 0,
      "byteLength": 281856,
      "byteOffset": 373776,
      "byteStride": 16,
      "name": "floatBufferViews",
      "target": 34962
    }
  ],
  "buffers": [
    {
      "byteLength": 655632,
      "uri": "scene.bin"
    }
  ],
  "images": [
    {
      "uri": "textures/hbltel_2_baseColor.png"
    },
    {
      "uri": "textures/hbltel_4_baseColor.png"
    },
    {
      "uri": "textures/hbltel_wfc_1_baseColor.png"
    },
    {
      "uri": "textures/hbltel_3_baseColor.png"
    },
    {
      "uri": "textures/hbltel_1_baseColor.png"
    }
  ],
  "materials": [
    {
      "doubleSided": true,
      "emissiveFactor": [
        0,
        0,
        0
      ],
      "name": "hbltel_1",
      "pbrMetallicRoughness": {
        "baseColorFactor": [
          1,
          1,
          1,
          1
        ],
        "baseColorTexture": {
          "index": 4,
          "texCoord": 0
        },
        "metallicFactor": 0,
        "roughnessFactor": 0.59999999999999998
      }
    },
    {
      "doubleSided": true,
      "emissiveFactor": [
        0,
        0,
        0
      ],
      "name": "hbltel_2",
      "pbrMetallicRoughness": {
        "baseColorFactor": [
          1,
          1,
          1,
          1
        ],
        "baseColorTexture": {
          "index": 0,
          "texCoord": 0
        },
        "metallicFactor": 0,
        "roughnessFactor": 0.59999999999999998
      }
    },
    {
      "doubleSided": true,
      "emissiveFactor": [
        0,
        0,
        0
      ],
      "name": "hbltel_4",
      "pbrMetallicRoughness": {
        "baseColorFactor": [
          1,
          1,
          1,
          1
        ],
        "baseColorTexture": {
          "index": 1,
          "texCoord": 0
        },
        "metallicFactor": 0,
        "roughnessFactor": 0.59999999999999998
      }
    },
    {
      "doubleSided": true,
      "emissiveFactor": [
        0,
        0,
        0
      ],
      "name": "hbltel_3",
      "pbrMetallicRoughness": {
        "baseColorFactor": [
          1,
          1,
          1,
          1
        ],
        "baseColorTexture": {
          "index": 3,
          "texCoord": 0
        },
        "metallicFactor": 0,
        "roughnessFactor": 0.59999999999999998
      }
    },
    {
      "doubleSided": true,
      "emissiveFactor": [
        0,
        0,
        0
      ],
      "name": "hbltel_wfc_1",
      "pbrMetallicRoughness": {
        "baseColorFactor": [
          1,
          1,
          1,
          1
        ],
        "baseColorTexture": {
          "index": 2,
          "texCoord": 0
        },
        "metallicFactor": 0,
        "roughnessFactor": 0.59999999999999998
      }
    }
  ],
  "meshes": [
    {
      "primitives": [
        {
          "attributes": {
            "COLOR_0": 3,
            "NORMAL": 1,
            "POSITION": 0,
            "TANGENT": 2,
            "TEXCOORD_0": 4
          },
          "indices": 5,
          "material": 0,
          "mode": 4
        }
      ]
    },
    {
      "primitives": [
        {
          "attributes": {
            "COLOR_0": 9,
            "NORMAL": 7,
            "POSITION": 6,
            "TANGENT": 8,
            "TEXCOORD_0": 10
          },
          "indices": 11,
          "material": 1,
          "mode": 4
        }
      ]
    },
    {
      "primitives": [
        {
          "attributes": {
            "COLOR_0": 15,
            "NORMAL": 13,
            "POSITION": 12,
            "TANGENT": 14,
            "TEXCOORD_0": 16
          },
          "indices": 17,
          "material": 2,
          "mode": 4
        }
      ]
    },
    {
      "primitives": [
        {
          "attributes": {
            "COLOR_0": 21,
            "NORMAL": 19,
            "POSITION": 18,
            "TANGENT": 20,
            "TEXCOORD_0": 22
          },
          "indices": 23,
          "material": 3,
          "mode": 4
        }
      ]
    },
    {
      "primitives": [
        {
          "attributes": {
            "COLOR_0": 27,
            "NORMAL": 25,
            "POSITION": 24,
            "TANGENT": 26,
            "TEXCOORD_0": 28
          },
          "indices": 29,
          "material": 4,
          "mode": 4
        }
      ]
    }
  ],
  "nodes": [
    {
      "children": [
        1
      ],
      "name": "RootNode (gltf orientation matrix)",
      "rotation": [
        -0.70710678118654746,
        -0,
        -0,
        0.70710678118654757
      ]
    },
    {
      "children": [
        2
      ],
      "name": "RootNode (model correction matrix)"
    },
    {
      "children": [
        3
      ],
      "matrix": [
        1,
        0,
        0,
        0,
        0,
        1,
        0,
        0,
        0,
        0,
        1,
        0,
        -0.0078999996185302734,
        0.26730000972747803,
        -259.46029663085938,
        1
      ],
      "name": "hst"
    },
    {
      "children": [
        4,
        5,
        6,
        7,
        8
      ],
      "matrix": [
        1,
        0,
        0,
        0,
        0,
        1,
        0,
        0,
        0,
        0,
        1,
        0,
        0.0078999996185302734,
        -0.26730000972747803,
        259.46029663085938,
        1
      ],
      "name": "3DSMeshMatrix"
    },
    {
      "mesh": 0,
      "name": ""
    },
    {
      "mesh": 1,
      "name": ""
    },
    {
      "mesh": 2,
      "name": ""
    },
    {
      "mesh": 3,
      "name": ""
    },
    {
      "mesh": 4,
      "name": ""
    }
  ],
  "samplers": [
    {
      "magFilter": 9729,
      "minFilter": 9987,
      "wrapS": 10497,
      "wrapT": 10497
    }
  ],
  "scene": 0,
  "scenes": [
    {
      "name": "OSG_Scene",
      "nodes": [
        0
      ]
    }
  ],
  "textures": [
    {
      "sampler": 0,
      "source": 0
    },
    {
      "sampler": 0,
      "source": 1
    },
    {
      "sampler": 0,
      "source": 2
    },
    {
      "sampler": 0,
      "source": 3
    },
    {
      "sampler": 0,
      "source": 4
    }
  ]
}

